<svg width="760" height="726" viewBox="0 0 760 726" fill="none" xmlns="http://www.w3.org/2000/svg">
<mask id="mask0_519_8562" style="mask-type:alpha" maskUnits="userSpaceOnUse" x="458" y="12" width="110" height="169">
<rect x="568" y="181" width="110" height="169" transform="rotate(180 568 181)" fill="white"/>
</mask>
<g mask="url(#mask0_519_8562)">
<circle cx="555.5" cy="172.5" r="1.5" transform="rotate(180 555.5 172.5)" fill="black"/>
<circle cx="517.5" cy="172.5" r="1.5" transform="rotate(180 517.5 172.5)" fill="black"/>
<circle cx="479.5" cy="172.5" r="1.5" transform="rotate(180 479.5 172.5)" fill="black"/>
<circle cx="555.5" cy="134.5" r="1.5" transform="rotate(180 555.5 134.5)" fill="black"/>
<circle cx="517.5" cy="134.5" r="1.5" transform="rotate(180 517.5 134.5)" fill="black"/>
<circle cx="479.5" cy="134.5" r="1.5" transform="rotate(180 479.5 134.5)" fill="black"/>
<circle cx="555.5" cy="96.5" r="1.5" transform="rotate(180 555.5 96.5)" fill="black"/>
<circle cx="517.5" cy="96.5" r="1.5" transform="rotate(180 517.5 96.5)" fill="black"/>
<circle cx="479.5" cy="96.5" r="1.5" transform="rotate(180 479.5 96.5)" fill="black"/>
<circle cx="555.5" cy="58.5" r="1.5" transform="rotate(180 555.5 58.5)" fill="black"/>
<circle cx="517.5" cy="58.5" r="1.5" transform="rotate(180 517.5 58.5)" fill="black"/>
<circle cx="479.5" cy="58.5" r="1.5" transform="rotate(180 479.5 58.5)" fill="black"/>
<circle cx="555.5" cy="20.5" r="1.5" transform="rotate(180 555.5 20.5)" fill="black"/>
<circle cx="517.5" cy="20.5" r="1.5" transform="rotate(180 517.5 20.5)" fill="black"/>
<circle cx="479.5" cy="20.5" r="1.5" transform="rotate(180 479.5 20.5)" fill="black"/>
</g>
<path d="M110 420C87.9086 420 70 402.091 70 380L70 245L225 245C247.091 245 265 262.909 265 285L265 420L110 420Z" fill="#E6E6E6"/>
<mask id="mask1_519_8562" style="mask-type:alpha" maskUnits="userSpaceOnUse" x="70" y="245" width="195" height="175">
<path d="M70.75 380L70.75 245.75L225 245.75C246.677 245.75 264.25 263.323 264.25 285L264.25 419.25L110 419.25C88.3228 419.25 70.75 401.677 70.75 380Z" fill="white" stroke="#00BDE5" stroke-width="1.5"/>
</mask>
<g mask="url(#mask1_519_8562)">
</g>
<path d="M313 305C313 271.863 339.863 245 373 245H609V508C609 541.137 582.137 568 549 568H313V305Z" fill="#E6E6E6"/>
<mask id="mask2_519_8562" style="mask-type:alpha" maskUnits="userSpaceOnUse" x="313" y="245" width="296" height="323">
<path d="M313 305C313 271.863 339.863 245 373 245H609V508C609 541.137 582.137 568 549 568H313V305Z" fill="white"/>
</mask>
<g mask="url(#mask2_519_8562)">
</g>
<path d="M70 49.9999C70 22.3856 92.3858 -0.00012207 120 -0.00012207H391V147C391 174.614 368.614 197 341 197H70V49.9999Z" fill="#E6E6E6"/>
<mask id="mask3_519_8562" style="mask-type:alpha" maskUnits="userSpaceOnUse" x="70" y="-1" width="321" height="198">
<path d="M120 0.749878H390.25V147C390.25 174.2 368.2 196.25 341 196.25H70.75V49.9999C70.75 22.7999 92.8 0.749878 120 0.749878Z" fill="white" stroke="#FFAE10" stroke-width="1.5"/>
</mask>
<g mask="url(#mask3_519_8562)">
</g>
<g filter="url(#filter0_d_519_8562)">
<rect x="70" y="496" width="318" height="150" rx="15" fill="white"/>
</g>
<mask id="mask4_519_8562" style="mask-type:alpha" maskUnits="userSpaceOnUse" x="99" y="555" width="69" height="70">
<circle cx="133.5" cy="589.501" r="31.5" fill="white" stroke="#DCDDDD" stroke-width="6"/>
</mask>
<g mask="url(#mask4_519_8562)">
<circle cx="133.5" cy="589.501" r="31.5" fill="#EBEBEB" stroke="white" stroke-width="6"/>
</g>
<circle cx="182.427" cy="589.501" r="31.5" fill="#94B4BF" stroke="#DCDDDD" stroke-width="6"/>
<mask id="mask5_519_8562" style="mask-type:alpha" maskUnits="userSpaceOnUse" x="147" y="555" width="70" height="70">
<circle cx="182.427" cy="589.501" r="31.5" fill="#94B4BF" stroke="#DCDDDD" stroke-width="6"/>
</mask>
<g mask="url(#mask5_519_8562)">
<circle cx="182.427" cy="589.501" r="31.5" fill="#EBEBEB" stroke="white" stroke-width="6"/>
</g>
<mask id="mask6_519_8562" style="mask-type:alpha" maskUnits="userSpaceOnUse" x="193" y="555" width="70" height="70">
<circle cx="227.591" cy="589.501" r="31.5" fill="white" stroke="#DCDDDD" stroke-width="6"/>
</mask>
<g mask="url(#mask6_519_8562)">
<circle cx="227.591" cy="589.501" r="31.5" fill="#EBEBEB" stroke="white" stroke-width="6"/>
</g>
<mask id="mask7_519_8562" style="mask-type:alpha" maskUnits="userSpaceOnUse" x="244" y="555" width="69" height="70">
<circle cx="278.5" cy="589.501" r="31.5" fill="white" stroke="#DCDDDD" stroke-width="6"/>
</mask>
<g mask="url(#mask7_519_8562)">
<circle cx="278.5" cy="589.501" r="31.5" fill="#EBEBEB" stroke="white" stroke-width="6"/>
</g>
<circle cx="323.5" cy="589.501" r="31.5" fill="#E2EEF1" stroke="white" stroke-width="6"/>
<path d="M323.136 597.01H325.386V590.8H331.626V588.58H325.386V582.43H323.136V588.58H316.896V590.8H323.136V597.01Z" fill="#1A1A1A"/>
<path d="M164.119 524.137L165.088 525.735L168.08 523.933V535H170.171V521.689H168.182L164.119 524.137ZM177.616 535.153C179.01 535.153 180.166 534.796 181.101 534.099C182.036 533.385 182.512 532.45 182.512 531.294C182.512 529.764 181.662 528.693 179.979 528.081V528.064C181.356 527.605 182.172 526.534 182.172 525.106C182.172 524.001 181.713 523.134 180.812 522.488C179.911 521.825 178.857 521.502 177.616 521.502C176.409 521.502 175.338 521.825 174.437 522.488C173.536 523.151 173.077 524.018 173.077 525.106C173.077 526.534 173.927 527.673 175.287 528.064V528.081C173.587 528.71 172.737 529.798 172.737 531.379C172.737 532.484 173.196 533.402 174.131 534.099C175.066 534.796 176.239 535.153 177.616 535.153ZM175.151 525.31C175.151 524.137 176.171 523.304 177.616 523.304C179.044 523.304 180.098 524.154 180.098 525.31C180.098 526.466 179.044 527.316 177.616 527.316C176.936 527.316 176.358 527.129 175.865 526.755C175.389 526.364 175.151 525.888 175.151 525.31ZM174.828 531.209C174.828 530.58 175.083 530.087 175.61 529.696C176.137 529.305 176.817 529.101 177.616 529.101C178.398 529.101 179.061 529.305 179.605 529.713C180.166 530.104 180.438 530.614 180.438 531.209C180.438 531.821 180.166 532.331 179.605 532.739C179.061 533.13 178.398 533.334 177.616 533.334C176.834 533.334 176.171 533.13 175.627 532.722C175.1 532.314 174.828 531.804 174.828 531.209ZM184.751 535H186.774V530.563H186.825L190.616 535H193.285L188.967 530.036L193.064 525.922H190.31L186.791 529.492H186.774V521.162H184.751V535ZM197.57 529.713V533.198H199.474V529.713H203.027V527.86H199.474V524.426H197.57V527.86H194.017V529.713H197.57ZM213.75 535.153C214.855 535.153 215.756 534.881 216.453 534.337C217.15 533.793 217.643 533.147 217.898 532.416L216.13 531.634C215.705 532.756 214.923 533.317 213.784 533.317C213.019 533.317 212.373 533.045 211.863 532.501C211.353 531.957 211.098 531.26 211.098 530.41C211.098 529.577 211.353 528.897 211.863 528.37C212.39 527.843 213.019 527.571 213.767 527.571C214.923 527.571 215.705 528.132 216.096 529.237L217.83 528.455C217.286 526.84 215.79 525.735 213.75 525.735C212.407 525.735 211.285 526.194 210.384 527.129C209.483 528.064 209.024 529.169 209.024 530.444C209.024 531.787 209.483 532.909 210.384 533.81C211.285 534.711 212.407 535.153 213.75 535.153ZM225.031 528.846C225.031 529.356 224.742 529.611 224.181 529.611H223.059C221.461 529.611 219.285 530.274 219.285 532.382V532.484C219.285 533.266 219.574 533.912 220.152 534.405C220.73 534.898 221.461 535.153 222.345 535.153C223.569 535.153 224.453 534.694 225.014 533.759V535H227.003V529.22C227.003 528.591 226.901 528.047 226.697 527.588C226.136 526.347 224.997 525.735 223.297 525.735C221.444 525.735 220.152 526.5 219.438 528.047L220.985 528.931C221.444 527.962 222.209 527.486 223.246 527.486C224.385 527.486 225.031 528.098 225.031 528.846ZM225.014 531.328C225.014 532.688 224.13 533.538 222.753 533.538C221.886 533.538 221.308 533.045 221.308 532.297C221.308 531.906 221.495 531.6 221.852 531.379C222.226 531.158 222.634 531.039 223.059 531.039H225.014V531.328ZM237.768 535V529.407C237.768 527.231 236.595 525.735 234.368 525.735C233.212 525.735 232.294 526.211 231.597 527.146V525.922H229.625V535H231.648V529.951C231.648 528.574 232.464 527.656 233.739 527.656C235.082 527.656 235.745 528.557 235.745 529.917V535H237.768ZM239.753 530.444C239.753 531.702 240.178 532.807 241.028 533.742C241.878 534.677 242.949 535.136 244.224 535.136C244.7 535.136 245.244 535.017 245.856 534.762C246.485 534.507 246.944 534.116 247.267 533.589V535H249.239V521.162H247.216V527.214C246.91 526.721 246.468 526.364 245.873 526.126C245.295 525.871 244.768 525.752 244.275 525.752C242.932 525.752 241.827 526.228 240.994 527.18C240.161 528.132 239.753 529.22 239.753 530.444ZM244.53 527.571C245.329 527.571 245.975 527.843 246.485 528.404C246.995 528.965 247.25 529.645 247.25 530.444C247.25 531.243 246.995 531.923 246.485 532.484C245.992 533.028 245.329 533.3 244.53 533.3C243.731 533.3 243.068 533.028 242.558 532.484C242.065 531.923 241.81 531.243 241.81 530.444C241.81 529.645 242.065 528.965 242.558 528.404C243.068 527.843 243.731 527.571 244.53 527.571ZM252.022 523.916C252.549 524.443 253.365 524.443 253.892 523.916C254.419 523.389 254.419 522.573 253.892 522.046C253.365 521.502 252.549 521.502 252.022 522.046C251.495 522.573 251.495 523.389 252.022 523.916ZM253.977 525.922H251.954V535H253.977V525.922ZM256.056 530.444C256.056 531.702 256.481 532.807 257.331 533.742C258.181 534.677 259.252 535.136 260.527 535.136C261.003 535.136 261.547 535.017 262.159 534.762C262.788 534.507 263.247 534.116 263.57 533.589V535H265.542V521.162H263.519V527.214C263.213 526.721 262.771 526.364 262.176 526.126C261.598 525.871 261.071 525.752 260.578 525.752C259.235 525.752 258.13 526.228 257.297 527.18C256.464 528.132 256.056 529.22 256.056 530.444ZM260.833 527.571C261.632 527.571 262.278 527.843 262.788 528.404C263.298 528.965 263.553 529.645 263.553 530.444C263.553 531.243 263.298 531.923 262.788 532.484C262.295 533.028 261.632 533.3 260.833 533.3C260.034 533.3 259.371 533.028 258.861 532.484C258.368 531.923 258.113 531.243 258.113 530.444C258.113 529.645 258.368 528.965 258.861 528.404C259.371 527.843 260.034 527.571 260.833 527.571ZM273.441 528.846C273.441 529.356 273.152 529.611 272.591 529.611H271.469C269.871 529.611 267.695 530.274 267.695 532.382V532.484C267.695 533.266 267.984 533.912 268.562 534.405C269.14 534.898 269.871 535.153 270.755 535.153C271.979 535.153 272.863 534.694 273.424 533.759V535H275.413V529.22C275.413 528.591 275.311 528.047 275.107 527.588C274.546 526.347 273.407 525.735 271.707 525.735C269.854 525.735 268.562 526.5 267.848 528.047L269.395 528.931C269.854 527.962 270.619 527.486 271.656 527.486C272.795 527.486 273.441 528.098 273.441 528.846ZM273.424 531.328C273.424 532.688 272.54 533.538 271.163 533.538C270.296 533.538 269.718 533.045 269.718 532.297C269.718 531.906 269.905 531.6 270.262 531.379C270.636 531.158 271.044 531.039 271.469 531.039H273.424V531.328ZM282.899 527.741V525.922H280.672V523.117H278.649V525.922H276.983V527.741H278.649V532.076C278.649 534.048 279.805 535.102 281.794 535.102C282.185 535.102 282.559 535.034 282.882 534.915V533.198C282.661 533.249 282.44 533.266 282.236 533.266C281.199 533.266 280.672 532.841 280.672 531.753V527.741H282.899ZM293.222 531.056C293.239 530.903 293.256 530.699 293.256 530.427C293.256 529.016 292.865 527.894 292.083 527.027C291.301 526.16 290.213 525.735 288.836 525.735C287.527 525.735 286.439 526.194 285.572 527.112C284.705 528.03 284.263 529.135 284.263 530.444C284.263 531.787 284.722 532.926 285.623 533.827C286.541 534.728 287.68 535.17 289.023 535.17C290.655 535.17 292.134 534.388 292.899 532.977L291.437 532.008C290.944 532.943 290.128 533.419 288.989 533.419C288.292 533.419 287.68 533.198 287.153 532.756C286.626 532.297 286.354 531.736 286.337 531.056H293.222ZM288.836 527.469C290.128 527.469 291.131 528.251 291.199 529.526H286.439C286.626 528.285 287.595 527.469 288.836 527.469Z" fill="black"/>
<g filter="url(#filter1_d_519_8562)">
<rect x="475" y="215" width="225" height="82" rx="10" fill="white"/>
</g>
<path d="M558.674 248V243.716H560.998C562.272 243.716 563.266 243.394 563.98 242.764C564.694 242.12 565.044 241.308 565.044 240.328C565.044 239.404 564.722 238.62 564.064 237.99C563.406 237.36 562.454 237.038 561.194 237.038H557.526V248H558.674ZM558.674 238.116H561.096C562.09 238.116 562.79 238.34 563.224 238.774C563.658 239.208 563.868 239.74 563.868 240.37C563.868 240.986 563.63 241.518 563.154 241.98C562.678 242.428 561.978 242.652 561.04 242.652H558.674V238.116ZM569.006 243.688C568.222 243.688 567.536 243.87 566.934 244.22C566.346 244.57 566.052 245.102 566.052 245.844V245.928C566.052 246.558 566.276 247.09 566.738 247.51C567.2 247.916 567.816 248.126 568.558 248.126C569.622 248.126 570.462 247.65 571.078 246.684H571.092V248H572.156V243.17C572.156 242.708 572.086 242.302 571.932 241.938C571.484 240.916 570.574 240.398 569.202 240.398C567.718 240.398 566.696 241.042 566.136 242.33L567.032 242.834C567.494 241.854 568.208 241.364 569.174 241.364C570.448 241.364 571.078 241.966 571.078 243.184V243.688H569.006ZM571.078 244.85C571.078 245.536 570.854 246.082 570.42 246.516C569.986 246.95 569.426 247.16 568.754 247.16C567.816 247.16 567.144 246.67 567.144 245.844C567.186 244.864 568.138 244.57 568.992 244.584H571.078V244.85ZM576.758 247.496L574.827 251.682H576.003L581.127 240.524H579.951L577.361 246.306L574.617 240.524H573.357L576.758 247.496ZM588.781 248V243.702C588.781 243.044 588.963 242.498 589.341 242.064C589.719 241.616 590.223 241.392 590.853 241.392C592.155 241.392 592.785 242.302 592.785 243.646V248H593.877V243.38C593.877 241.588 592.869 240.398 591.119 240.398C590.013 240.398 589.131 240.888 588.487 241.882C588.025 240.888 587.227 240.384 586.093 240.384C585.029 240.384 584.315 240.86 583.685 241.826V240.524H582.607V248H583.699V243.744C583.699 243.1 583.881 242.54 584.259 242.078C584.637 241.616 585.141 241.378 585.771 241.378C587.059 241.378 587.703 242.316 587.703 243.618V248H588.781ZM602.86 244.598C602.874 244.528 602.874 244.402 602.874 244.234C602.874 243.1 602.566 242.19 601.95 241.476C601.334 240.762 600.466 240.398 599.346 240.398C598.324 240.398 597.456 240.776 596.756 241.546C596.056 242.316 595.706 243.212 595.706 244.248C595.706 245.326 596.07 246.25 596.798 247.006C597.526 247.748 598.422 248.126 599.5 248.126C600.844 248.126 602.034 247.426 602.664 246.194L601.852 245.662C601.418 246.558 600.536 247.16 599.486 247.16C598.758 247.16 598.142 246.922 597.638 246.432C597.134 245.942 596.854 245.326 596.812 244.598H602.86ZM596.826 243.674C596.924 243.03 597.204 242.484 597.68 242.036C598.156 241.574 598.716 241.35 599.346 241.35C600.746 241.35 601.614 242.274 601.768 243.674H596.826ZM611.237 248V243.38C611.237 241.588 610.201 240.384 608.409 240.384C607.275 240.384 606.421 240.888 605.833 241.896V240.524H604.755V248H605.847V243.744C605.847 243.072 606.057 242.512 606.477 242.064C606.897 241.602 607.429 241.378 608.073 241.378C609.417 241.378 610.145 242.26 610.145 243.646V248H611.237ZM616.151 248.056C616.473 248.056 616.767 248.014 617.005 247.944V247.034C616.851 247.076 616.627 247.09 616.333 247.09C615.521 247.09 615.115 246.74 615.115 246.04V241.49H617.005V240.524H615.115V238.368H614.037V240.524H612.651V241.49H614.037V246.068C614.037 247.398 614.737 248.056 616.151 248.056Z" fill="black" fill-opacity="0.4"/>
<path d="M566.217 260.576V258.689H557.7V272H566.285V270.096H559.791V266.169H565.639V264.282H559.791V260.576H566.217ZM571.073 272.153C572.093 272.153 572.926 271.898 573.555 271.371C574.184 270.844 574.507 270.164 574.507 269.331C574.507 267.92 573.419 266.934 571.362 266.475C570.189 266.22 569.679 265.914 569.679 265.319C569.679 264.826 570.325 264.435 570.954 264.435C571.821 264.435 572.45 264.843 572.858 265.659L574.422 264.775C573.793 263.415 572.654 262.735 571.022 262.735C570.138 262.735 569.373 262.99 568.71 263.517C568.047 264.044 567.724 264.707 567.724 265.523C567.724 266.169 567.945 266.713 568.37 267.172C568.863 267.699 569.628 268.056 570.631 268.26C571.872 268.515 572.501 268.923 572.501 269.45C572.501 270.062 571.838 270.453 571.073 270.453C570.104 270.453 569.39 269.96 568.897 268.991L567.316 269.875C568.013 271.388 569.271 272.153 571.073 272.153ZM580.28 272.153C581.385 272.153 582.286 271.881 582.983 271.337C583.68 270.793 584.173 270.147 584.428 269.416L582.66 268.634C582.235 269.756 581.453 270.317 580.314 270.317C579.549 270.317 578.903 270.045 578.393 269.501C577.883 268.957 577.628 268.26 577.628 267.41C577.628 266.577 577.883 265.897 578.393 265.37C578.92 264.843 579.549 264.571 580.297 264.571C581.453 264.571 582.235 265.132 582.626 266.237L584.36 265.455C583.816 263.84 582.32 262.735 580.28 262.735C578.937 262.735 577.815 263.194 576.914 264.129C576.013 265.064 575.554 266.169 575.554 267.444C575.554 268.787 576.013 269.909 576.914 270.81C577.815 271.711 578.937 272.153 580.28 272.153ZM590.84 262.888C590.721 262.854 590.568 262.837 590.347 262.837C589.242 262.837 588.409 263.347 587.848 264.367V262.922H585.876V272H587.899V267.393C587.899 265.812 588.715 264.911 590.262 264.911C590.483 264.911 590.67 264.928 590.84 264.962V262.888ZM596.032 262.735C594.706 262.735 593.567 263.194 592.632 264.095C591.697 264.996 591.221 266.118 591.221 267.444C591.221 268.77 591.68 269.892 592.615 270.793C593.55 271.694 594.689 272.153 596.015 272.153C597.358 272.153 598.48 271.694 599.398 270.793C600.333 269.875 600.792 268.753 600.792 267.41C600.792 266.084 600.333 264.979 599.398 264.078C598.463 263.177 597.341 262.735 596.032 262.735ZM594.043 265.404C594.553 264.843 595.216 264.571 596.015 264.571C596.814 264.571 597.477 264.843 597.97 265.404C598.48 265.965 598.735 266.645 598.735 267.444C598.735 268.243 598.48 268.923 597.987 269.484C597.494 270.045 596.831 270.317 596.032 270.317C595.233 270.317 594.57 270.028 594.06 269.467C593.55 268.889 593.295 268.209 593.295 267.41C593.295 266.611 593.55 265.948 594.043 265.404ZM613.36 262.922L611.456 269.348H611.422L609.348 262.922H607.308L605.251 269.331H605.234L603.33 262.922H601.205L604.112 272H606.186L608.294 265.625H608.328L610.419 272H612.527L615.434 262.922H613.36ZM624.83 272.153C626.207 272.153 627.312 271.779 628.128 271.014C628.944 270.249 629.352 269.348 629.352 268.311C629.352 267.342 629.029 266.543 628.4 265.931C627.771 265.302 626.632 264.741 624.983 264.248C623.351 263.755 622.518 263.211 622.518 262.208C622.518 261.137 623.453 260.389 624.745 260.389C626.02 260.389 626.921 261.018 627.431 262.259L629.165 261.324C628.536 259.675 627.04 258.502 624.796 258.502C623.555 258.502 622.518 258.876 621.651 259.624C620.801 260.355 620.376 261.256 620.376 262.327C620.376 263.347 620.716 264.163 621.396 264.758C622.042 265.336 623.079 265.846 624.524 266.305C626.428 266.9 627.193 267.461 627.193 268.43C627.193 269.535 626.224 270.249 624.864 270.249C623.419 270.249 622.263 269.467 621.702 268.039L619.934 268.957C620.682 270.997 622.501 272.153 624.83 272.153ZM632.03 262.922H629.718L633.764 270.98L631.265 276.471H633.424L639.663 262.922H637.47L634.852 268.872L632.03 262.922ZM643.358 272.153C644.378 272.153 645.211 271.898 645.84 271.371C646.469 270.844 646.792 270.164 646.792 269.331C646.792 267.92 645.704 266.934 643.647 266.475C642.474 266.22 641.964 265.914 641.964 265.319C641.964 264.826 642.61 264.435 643.239 264.435C644.106 264.435 644.735 264.843 645.143 265.659L646.707 264.775C646.078 263.415 644.939 262.735 643.307 262.735C642.423 262.735 641.658 262.99 640.995 263.517C640.332 264.044 640.009 264.707 640.009 265.523C640.009 266.169 640.23 266.713 640.655 267.172C641.148 267.699 641.913 268.056 642.916 268.26C644.157 268.515 644.786 268.923 644.786 269.45C644.786 270.062 644.123 270.453 643.358 270.453C642.389 270.453 641.675 269.96 641.182 268.991L639.601 269.875C640.298 271.388 641.556 272.153 643.358 272.153ZM653.264 264.741V262.922H651.037V260.117H649.014V262.922H647.348V264.741H649.014V269.076C649.014 271.048 650.17 272.102 652.159 272.102C652.55 272.102 652.924 272.034 653.247 271.915V270.198C653.026 270.249 652.805 270.266 652.601 270.266C651.564 270.266 651.037 269.841 651.037 268.753V264.741H653.264ZM663.087 268.056C663.104 267.903 663.121 267.699 663.121 267.427C663.121 266.016 662.73 264.894 661.948 264.027C661.166 263.16 660.078 262.735 658.701 262.735C657.392 262.735 656.304 263.194 655.437 264.112C654.57 265.03 654.128 266.135 654.128 267.444C654.128 268.787 654.587 269.926 655.488 270.827C656.406 271.728 657.545 272.17 658.888 272.17C660.52 272.17 661.999 271.388 662.764 269.977L661.302 269.008C660.809 269.943 659.993 270.419 658.854 270.419C658.157 270.419 657.545 270.198 657.018 269.756C656.491 269.297 656.219 268.736 656.202 268.056H663.087ZM658.701 264.469C659.993 264.469 660.996 265.251 661.064 266.526H656.304C656.491 265.285 657.46 264.469 658.701 264.469ZM672.672 272V266.934C672.672 265.557 673.437 264.639 674.678 264.639C676.021 264.639 676.616 265.506 676.616 266.883V272H678.639V266.39C678.639 264.214 677.534 262.718 675.341 262.718C673.998 262.718 673.114 263.194 672.179 264.214C671.618 263.211 670.683 262.718 669.374 262.718C668.286 262.718 667.385 263.194 666.671 264.146V262.922H664.699V272H666.722V266.951C666.722 265.574 667.487 264.639 668.711 264.639C670.054 264.639 670.666 265.54 670.666 266.9V272H672.672Z" fill="black"/>
<rect x="495" y="234" width="44" height="44" rx="22" fill="#FFE5E5"/>
<path d="M511 257L516.5 262L525.5 250" stroke="#EA0000" stroke-width="2" stroke-linecap="round"/>
<g filter="url(#filter2_d_519_8562)">
<rect x="300" y="61" width="311" height="70" rx="10" fill="white"/>
</g>
<path d="M327.744 102H331.472C333.344 102 334.912 101.408 336.176 100.24C337.44 99.056 338.08 97.552 338.08 95.712C338.08 93.936 337.456 92.448 336.224 91.264C334.992 90.064 333.408 89.472 331.472 89.472H327.744V102ZM329.056 90.704H331.408C333.024 90.704 334.304 91.184 335.264 92.128C336.24 93.072 336.72 94.288 336.72 95.744C336.72 97.216 336.224 98.416 335.248 99.36C334.272 100.304 333.008 100.768 331.424 100.768H329.056V90.704ZM347.898 98.112C347.914 98.032 347.914 97.888 347.914 97.696C347.914 96.4 347.562 95.36 346.858 94.544C346.154 93.728 345.162 93.312 343.882 93.312C342.714 93.312 341.722 93.744 340.922 94.624C340.122 95.504 339.722 96.528 339.722 97.712C339.722 98.944 340.138 100 340.97 100.864C341.802 101.712 342.826 102.144 344.058 102.144C345.594 102.144 346.954 101.344 347.674 99.936L346.746 99.328C346.25 100.352 345.242 101.04 344.042 101.04C343.21 101.04 342.506 100.768 341.93 100.208C341.354 99.648 341.034 98.944 340.986 98.112H347.898ZM341.002 97.056C341.114 96.32 341.434 95.696 341.978 95.184C342.522 94.656 343.161 94.4 343.882 94.4C345.482 94.4 346.474 95.456 346.65 97.056H341.002ZM355.728 99.568C355.728 99.04 355.52 98.56 355.12 98.16C354.656 97.68 353.904 97.328 352.88 97.104C351.296 96.768 350.88 96.464 350.88 95.76C350.88 95.392 351.056 95.088 351.392 94.816C351.728 94.544 352.144 94.416 352.608 94.416C353.488 94.416 354.16 94.896 354.608 95.856L355.632 95.296C355.056 93.968 354.048 93.312 352.608 93.312C351.84 93.312 351.152 93.552 350.544 94.032C349.936 94.512 349.632 95.12 349.632 95.856C349.632 96.352 349.792 96.768 350.096 97.136C350.56 97.664 351.152 97.936 352.32 98.192C353.872 98.56 354.464 98.928 354.464 99.648C354.464 100.496 353.616 101.04 352.64 101.04C351.632 101.04 350.864 100.48 350.336 99.376L349.312 99.936C349.968 101.408 351.088 102.144 352.656 102.144C353.536 102.144 354.272 101.904 354.848 101.424C355.44 100.928 355.728 100.32 355.728 99.568ZM357.651 90.4C357.651 90.912 358.067 91.328 358.579 91.328C359.107 91.328 359.523 90.912 359.523 90.4C359.523 89.872 359.107 89.456 358.579 89.456C358.067 89.456 357.651 89.872 357.651 90.4ZM359.219 93.456H357.955V102H359.219V93.456ZM368.737 102.08C368.737 104.176 367.473 105.184 365.681 105.184C364.737 105.184 363.985 104.896 363.489 104.384C362.993 103.872 362.753 103.52 362.481 102.928L361.473 103.52C362.289 105.36 363.697 106.272 365.697 106.272C368.337 106.272 369.985 104.736 369.985 102.032V93.456H368.753V95.248C367.889 93.952 366.785 93.312 365.425 93.312C364.257 93.312 363.297 93.744 362.545 94.624C361.793 95.504 361.425 96.512 361.425 97.68C361.425 98.88 361.793 99.92 362.529 100.768C363.265 101.616 364.225 102.032 365.425 102.032C366.849 102.032 367.953 101.392 368.737 100.096V102.08ZM365.681 100.944C364.769 100.944 364.049 100.64 363.505 100.016C362.977 99.392 362.705 98.624 362.705 97.712C362.705 96.768 362.977 95.984 363.505 95.36C364.033 94.736 364.769 94.416 365.681 94.416C366.545 94.416 367.265 94.736 367.857 95.392C368.449 96.048 368.753 96.8 368.753 97.664C368.753 98.56 368.465 99.328 367.873 99.984C367.297 100.624 366.561 100.944 365.681 100.944ZM380.207 102V96.72C380.207 94.672 379.023 93.296 376.975 93.296C375.679 93.296 374.703 93.872 374.031 95.024V93.456H372.799V102H374.047V97.136C374.047 96.368 374.287 95.728 374.767 95.216C375.247 94.688 375.855 94.432 376.591 94.432C378.127 94.432 378.959 95.44 378.959 97.024V102H380.207ZM390.46 98.112C390.476 98.032 390.476 97.888 390.476 97.696C390.476 96.4 390.124 95.36 389.42 94.544C388.716 93.728 387.724 93.312 386.444 93.312C385.276 93.312 384.284 93.744 383.484 94.624C382.684 95.504 382.284 96.528 382.284 97.712C382.284 98.944 382.7 100 383.532 100.864C384.364 101.712 385.388 102.144 386.62 102.144C388.156 102.144 389.516 101.344 390.236 99.936L389.308 99.328C388.812 100.352 387.804 101.04 386.604 101.04C385.772 101.04 385.068 100.768 384.492 100.208C383.916 99.648 383.596 98.944 383.548 98.112H390.46ZM383.564 97.056C383.676 96.32 383.996 95.696 384.54 95.184C385.084 94.656 385.724 94.4 386.444 94.4C388.044 94.4 389.036 95.456 389.212 97.056H383.564ZM392.627 93.456V102H393.875V97.824C393.875 96.944 394.083 96.208 394.515 95.584C394.947 94.96 395.619 94.64 396.547 94.64C396.659 94.64 396.819 94.656 397.027 94.672V93.344C396.963 93.328 396.819 93.328 396.611 93.328C395.523 93.328 394.451 93.92 393.859 95.152V93.456H392.627ZM398.182 104.448C399.318 103.632 399.894 102.64 399.894 101.472V101.408C399.894 100.464 399.382 99.84 398.63 99.84C398.006 99.84 397.51 100.336 397.51 100.976C397.51 101.616 397.942 102.032 398.566 102.032C398.694 102.032 398.822 102 398.95 101.952C398.854 102.608 398.39 103.248 397.558 103.872L398.182 104.448ZM407.228 102H411.884C413.164 102 414.22 101.712 415.052 101.136C415.9 100.56 416.316 99.696 416.316 98.56C416.316 97.968 416.108 97.36 415.708 96.736C415.308 96.112 414.684 95.696 413.852 95.488C414.668 95.12 415.26 94.544 415.468 93.968C415.708 93.376 415.756 93.008 415.756 92.624C415.756 91.632 415.372 90.864 414.62 90.304C413.868 89.744 412.908 89.472 411.724 89.472H407.228V102ZM408.524 90.672H411.612C413.212 90.672 414.428 91.344 414.428 92.768C414.428 94.096 413.484 95.04 411.516 95.04H408.524V90.672ZM408.524 96.208H411.676C412.764 96.208 413.708 96.384 414.428 97.104C414.796 97.456 414.972 97.904 414.972 98.464C414.972 99.28 414.668 99.872 414.044 100.24C413.436 100.608 412.732 100.8 411.916 100.8H408.524V96.208ZM418.627 93.456V102H419.875V97.824C419.875 96.944 420.083 96.208 420.515 95.584C420.947 94.96 421.619 94.64 422.547 94.64C422.659 94.64 422.819 94.656 423.027 94.672V93.344C422.963 93.328 422.819 93.328 422.611 93.328C421.523 93.328 420.451 93.92 419.859 95.152V93.456H418.627ZM427.286 97.072C426.39 97.072 425.606 97.28 424.918 97.68C424.246 98.08 423.91 98.688 423.91 99.536V99.632C423.91 100.352 424.166 100.96 424.694 101.44C425.222 101.904 425.926 102.144 426.774 102.144C427.99 102.144 428.95 101.6 429.654 100.496H429.67V102H430.886V96.48C430.886 95.952 430.806 95.488 430.63 95.072C430.118 93.904 429.078 93.312 427.51 93.312C425.814 93.312 424.646 94.048 424.006 95.52L425.03 96.096C425.558 94.976 426.374 94.416 427.478 94.416C428.934 94.416 429.654 95.104 429.654 96.496V97.072H427.286ZM429.654 98.4C429.654 99.184 429.398 99.808 428.902 100.304C428.406 100.8 427.766 101.04 426.998 101.04C425.926 101.04 425.158 100.48 425.158 99.536C425.206 98.416 426.294 98.08 427.27 98.096H429.654V98.4ZM441.003 102V96.72C441.003 94.672 439.82 93.296 437.772 93.296C436.476 93.296 435.5 93.872 434.828 95.024V93.456H433.596V102H434.844V97.136C434.844 96.368 435.084 95.728 435.564 95.216C436.044 94.688 436.652 94.432 437.388 94.432C438.924 94.432 439.756 95.44 439.756 97.024V102H441.003ZM443.097 97.712C443.097 98.928 443.465 99.968 444.201 100.832C444.953 101.696 445.913 102.128 447.097 102.128C448.521 102.128 449.641 101.472 450.425 100.176V102H451.641V88.976H450.409V95.248C449.529 93.952 448.425 93.312 447.097 93.312C445.929 93.312 444.969 93.76 444.217 94.64C443.465 95.52 443.097 96.544 443.097 97.712ZM447.353 101.024C446.441 101.024 445.721 100.704 445.177 100.08C444.633 99.44 444.361 98.656 444.361 97.744C444.361 96.8 444.633 96 445.177 95.376C445.721 94.736 446.441 94.416 447.353 94.416C448.217 94.416 448.937 94.752 449.529 95.408C450.121 96.064 450.425 96.816 450.425 97.696C450.425 98.608 450.137 99.392 449.545 100.048C448.969 100.704 448.233 101.024 447.353 101.024ZM454.823 104.448C455.959 103.632 456.535 102.64 456.535 101.472V101.408C456.535 100.464 456.023 99.84 455.271 99.84C454.647 99.84 454.151 100.336 454.151 100.976C454.151 101.616 454.583 102.032 455.207 102.032C455.335 102.032 455.463 102 455.591 101.952C455.495 102.608 455.031 103.248 454.199 103.872L454.823 104.448ZM465.181 89.472H463.869V102H471.117V100.768H465.181V89.472ZM476.45 102.144C477.698 102.144 478.754 101.712 479.602 100.864C480.45 100.016 480.882 98.96 480.882 97.696C480.882 96.464 480.45 95.44 479.602 94.592C478.754 93.744 477.714 93.312 476.482 93.312C475.218 93.312 474.162 93.744 473.314 94.592C472.466 95.44 472.05 96.496 472.05 97.76C472.05 98.976 472.466 100.016 473.314 100.864C474.162 101.712 475.218 102.144 476.45 102.144ZM476.482 101.04C475.57 101.04 474.802 100.72 474.21 100.064C473.618 99.408 473.33 98.608 473.33 97.696C473.33 96.784 473.618 96 474.21 95.36C474.802 94.72 475.538 94.4 476.45 94.4C477.362 94.4 478.114 94.736 478.706 95.392C479.298 96.048 479.602 96.848 479.602 97.76C479.602 98.672 479.298 99.44 478.706 100.08C478.114 100.72 477.378 101.04 476.482 101.04ZM489.784 102.08C489.784 104.176 488.52 105.184 486.728 105.184C485.784 105.184 485.032 104.896 484.536 104.384C484.04 103.872 483.8 103.52 483.528 102.928L482.52 103.52C483.336 105.36 484.744 106.272 486.744 106.272C489.384 106.272 491.032 104.736 491.032 102.032V93.456H489.8V95.248C488.936 93.952 487.832 93.312 486.472 93.312C485.304 93.312 484.344 93.744 483.592 94.624C482.84 95.504 482.472 96.512 482.472 97.68C482.472 98.88 482.84 99.92 483.576 100.768C484.312 101.616 485.272 102.032 486.472 102.032C487.896 102.032 489 101.392 489.784 100.096V102.08ZM486.728 100.944C485.816 100.944 485.096 100.64 484.552 100.016C484.024 99.392 483.752 98.624 483.752 97.712C483.752 96.768 484.024 95.984 484.552 95.36C485.08 94.736 485.816 94.416 486.728 94.416C487.592 94.416 488.312 94.736 488.904 95.392C489.496 96.048 489.8 96.8 489.8 97.664C489.8 98.56 489.512 99.328 488.92 99.984C488.344 100.624 487.608 100.944 486.728 100.944ZM497.622 102.144C498.87 102.144 499.926 101.712 500.774 100.864C501.622 100.016 502.054 98.96 502.054 97.696C502.054 96.464 501.622 95.44 500.774 94.592C499.926 93.744 498.886 93.312 497.654 93.312C496.39 93.312 495.334 93.744 494.486 94.592C493.638 95.44 493.222 96.496 493.222 97.76C493.222 98.976 493.638 100.016 494.486 100.864C495.334 101.712 496.39 102.144 497.622 102.144ZM497.654 101.04C496.742 101.04 495.974 100.72 495.382 100.064C494.789 99.408 494.502 98.608 494.502 97.696C494.502 96.784 494.789 96 495.382 95.36C495.974 94.72 496.71 94.4 497.622 94.4C498.534 94.4 499.286 94.736 499.878 95.392C500.47 96.048 500.774 96.848 500.774 97.76C500.774 98.672 500.47 99.44 499.878 100.08C499.286 100.72 498.55 101.04 497.654 101.04Z" fill="black"/>
<g filter="url(#filter3_d_519_8562)">
<path d="M634 71C634 65.4772 638.477 61 644 61H692.296C697.819 61 702.296 65.4772 702.296 71V121C702.296 126.523 697.819 131 692.296 131H644C638.477 131 634 126.523 634 121V71Z" fill="#00BF58"/>
</g>
<path d="M677.403 93.4694C677.403 98.8681 673.007 103.25 667.577 103.25C662.147 103.25 657.75 98.8681 657.75 93.4694C657.75 88.0706 662.147 83.6885 667.577 83.6885C673.007 83.6885 677.403 88.0706 677.403 93.4694Z" stroke="white" stroke-width="1.5"/>
<path d="M674.319 100.183L679.096 105.618" stroke="white" stroke-width="1.5"/>
<g opacity="0.3">
<mask id="mask8_519_8562" style="mask-type:alpha" maskUnits="userSpaceOnUse" x="609" y="570" width="47" height="49">
<rect x="609" y="571" width="47" height="48" fill="#C4C4C4"/>
</mask>
<g mask="url(#mask8_519_8562)">
<rect width="0.514073" height="640.946" transform="matrix(0.707107 0.707107 -0.474641 0.88018 619.112 476.578)" fill="black"/>
<rect width="0.514073" height="640.946" transform="matrix(0.707107 0.707107 -0.474641 0.88018 608.726 466.192)" fill="black"/>
<rect width="0.514073" height="640.946" transform="matrix(0.707107 0.707107 -0.474641 0.88018 621.189 478.655)" fill="black"/>
<rect width="0.514073" height="640.946" transform="matrix(0.707107 0.707107 -0.474641 0.88018 610.804 468.269)" fill="black"/>
<rect width="0.514073" height="640.946" transform="matrix(0.707107 0.707107 -0.474641 0.88018 623.267 480.732)" fill="black"/>
<rect width="0.514073" height="640.946" transform="matrix(0.707107 0.707107 -0.474641 0.88018 612.881 470.346)" fill="black"/>
<rect width="0.514073" height="640.946" transform="matrix(0.707107 0.707107 -0.474641 0.88018 625.343 482.809)" fill="black"/>
<rect width="0.514073" height="640.946" transform="matrix(0.707107 0.707107 -0.474641 0.88018 614.958 472.424)" fill="black"/>
<rect width="0.514073" height="640.946" transform="matrix(0.707107 0.707107 -0.474641 0.88018 627.42 484.886)" fill="black"/>
<rect width="0.514073" height="640.946" transform="matrix(0.707107 0.707107 -0.474641 0.88018 617.035 474.501)" fill="black"/>
<rect width="0.514073" height="640.946" transform="matrix(0.707107 0.707107 -0.474641 0.88018 629.499 486.964)" fill="black"/>
<rect width="0.514073" height="640.946" transform="matrix(0.707107 0.707107 -0.474641 0.88018 631.576 489.041)" fill="black"/>
<rect width="0.514073" height="640.946" transform="matrix(0.707107 0.707107 -0.474641 0.88018 644.038 501.504)" fill="black"/>
<rect width="0.514073" height="640.946" transform="matrix(0.707107 0.707107 -0.474641 0.88018 633.652 491.118)" fill="black"/>
<rect width="0.514073" height="640.946" transform="matrix(0.707107 0.707107 -0.474641 0.88018 646.115 503.581)" fill="black"/>
<rect width="0.514073" height="640.946" transform="matrix(0.707107 0.707107 -0.474641 0.88018 635.729 493.195)" fill="black"/>
<rect width="0.514073" height="640.946" transform="matrix(0.707107 0.707107 -0.474641 0.88018 648.193 505.658)" fill="black"/>
<rect width="0.514073" height="640.946" transform="matrix(0.707107 0.707107 -0.474641 0.88018 637.806 495.272)" fill="black"/>
<rect width="0.514073" height="640.946" transform="matrix(0.707107 0.707107 -0.474641 0.88018 650.27 507.736)" fill="black"/>
<rect width="0.514073" height="640.946" transform="matrix(0.707107 0.707107 -0.474641 0.88018 639.885 497.35)" fill="black"/>
<rect width="0.514073" height="640.946" transform="matrix(0.707107 0.707107 -0.474641 0.88018 652.347 509.812)" fill="black"/>
<rect width="0.514073" height="640.946" transform="matrix(0.707107 0.707107 -0.474641 0.88018 641.961 499.427)" fill="black"/>
<rect width="0.514073" height="640.946" transform="matrix(0.707107 0.707107 -0.474641 0.88018 654.424 511.89)" fill="black"/>
<rect width="0.514073" height="640.946" transform="matrix(0.707107 0.707107 -0.474641 0.88018 656.5 513.967)" fill="black"/>
<rect width="0.514073" height="640.946" transform="matrix(0.707107 0.707107 -0.474641 0.88018 668.965 526.43)" fill="black"/>
<rect width="0.514073" height="640.946" transform="matrix(0.707107 0.707107 -0.474641 0.88018 658.579 516.044)" fill="black"/>
<rect width="0.514073" height="640.946" transform="matrix(0.707107 0.707107 -0.474641 0.88018 671.042 528.507)" fill="black"/>
<rect width="0.514073" height="640.946" transform="matrix(0.707107 0.707107 -0.474641 0.88018 660.656 518.121)" fill="black"/>
<rect width="0.514073" height="640.946" transform="matrix(0.707107 0.707107 -0.474641 0.88018 673.118 530.584)" fill="black"/>
<rect width="0.514073" height="640.946" transform="matrix(0.707107 0.707107 -0.474641 0.88018 662.733 520.198)" fill="black"/>
<rect width="0.514073" height="640.946" transform="matrix(0.707107 0.707107 -0.474641 0.88018 675.195 532.661)" fill="black"/>
<rect width="0.514073" height="640.946" transform="matrix(0.707107 0.707107 -0.474641 0.88018 664.81 522.276)" fill="black"/>
<rect width="0.514073" height="640.946" transform="matrix(0.707107 0.707107 -0.474641 0.88018 677.274 534.739)" fill="black"/>
<rect width="0.514073" height="640.946" transform="matrix(0.707107 0.707107 -0.474641 0.88018 666.886 524.353)" fill="black"/>
<rect width="0.514073" height="640.946" transform="matrix(0.707107 0.707107 -0.474641 0.88018 679.35 536.816)" fill="black"/>
<rect width="0.514073" height="640.946" transform="matrix(0.707107 0.707107 -0.474641 0.88018 681.427 538.893)" fill="black"/>
<rect width="0.514073" height="640.946" transform="matrix(0.707107 0.707107 -0.474641 0.88018 693.889 551.356)" fill="black"/>
<rect width="0.514073" height="640.946" transform="matrix(0.707107 0.707107 -0.474641 0.88018 683.504 540.97)" fill="black"/>
<rect width="0.514073" height="640.946" transform="matrix(0.707107 0.707107 -0.474641 0.88018 695.967 553.433)" fill="black"/>
<rect width="0.514073" height="640.946" transform="matrix(0.707107 0.707107 -0.474641 0.88018 685.581 543.047)" fill="black"/>
<rect width="0.514073" height="640.946" transform="matrix(0.707107 0.707107 -0.474641 0.88018 698.045 555.51)" fill="black"/>
<rect width="0.514073" height="640.946" transform="matrix(0.707107 0.707107 -0.474641 0.88018 687.659 545.125)" fill="black"/>
<rect width="0.514073" height="640.946" transform="matrix(0.707107 0.707107 -0.474641 0.88018 700.122 557.588)" fill="black"/>
<rect width="0.514073" height="640.946" transform="matrix(0.707107 0.707107 -0.474641 0.88018 689.736 547.202)" fill="black"/>
<rect width="0.514073" height="640.946" transform="matrix(0.707107 0.707107 -0.474641 0.88018 702.198 559.665)" fill="black"/>
<rect width="0.514073" height="640.946" transform="matrix(0.707107 0.707107 -0.474641 0.88018 691.813 549.279)" fill="black"/>
<rect width="0.514073" height="640.946" transform="matrix(0.707107 0.707107 -0.474641 0.88018 704.275 561.742)" fill="black"/>
<rect width="0.514073" height="640.946" transform="matrix(0.707107 0.707107 -0.474641 0.88018 706.353 563.819)" fill="black"/>
<rect width="0.514073" height="640.946" transform="matrix(0.707107 0.707107 -0.474641 0.88018 718.816 576.282)" fill="black"/>
<rect width="0.514073" height="640.946" transform="matrix(0.707107 0.707107 -0.474641 0.88018 708.431 565.896)" fill="black"/>
<rect width="0.514073" height="640.946" transform="matrix(0.707107 0.707107 -0.474641 0.88018 720.893 578.359)" fill="black"/>
<rect width="0.514073" height="640.946" transform="matrix(0.707107 0.707107 -0.474641 0.88018 710.507 567.973)" fill="black"/>
<rect width="0.514073" height="640.946" transform="matrix(0.707107 0.707107 -0.474641 0.88018 722.97 580.436)" fill="black"/>
<rect width="0.514073" height="640.946" transform="matrix(0.707107 0.707107 -0.474641 0.88018 712.585 570.05)" fill="black"/>
<rect width="0.514073" height="640.946" transform="matrix(0.707107 0.707107 -0.474641 0.88018 725.048 582.514)" fill="black"/>
<rect width="0.514073" height="640.946" transform="matrix(0.707107 0.707107 -0.474641 0.88018 714.661 572.127)" fill="black"/>
<rect width="0.514073" height="640.946" transform="matrix(0.707107 0.707107 -0.474641 0.88018 727.125 584.591)" fill="black"/>
<rect width="0.514073" height="640.946" transform="matrix(0.707107 0.707107 -0.474641 0.88018 716.74 574.205)" fill="black"/>
<rect width="0.514073" height="640.946" transform="matrix(0.707107 0.707107 -0.474641 0.88018 729.202 586.668)" fill="black"/>
<rect width="0.514073" height="640.946" transform="matrix(0.707107 0.707107 -0.474641 0.88018 731.279 588.745)" fill="black"/>
<rect width="0.514073" height="640.946" transform="matrix(0.707107 0.707107 -0.474641 0.88018 743.741 601.208)" fill="black"/>
<rect width="0.514073" height="640.946" transform="matrix(0.707107 0.707107 -0.474641 0.88018 733.355 590.822)" fill="black"/>
<rect width="0.514073" height="640.946" transform="matrix(0.707107 0.707107 -0.474641 0.88018 745.82 603.285)" fill="black"/>
<rect width="0.514073" height="640.946" transform="matrix(0.707107 0.707107 -0.474641 0.88018 735.434 592.899)" fill="black"/>
<rect width="0.514073" height="640.946" transform="matrix(0.707107 0.707107 -0.474641 0.88018 747.896 605.362)" fill="black"/>
<rect width="0.514073" height="640.946" transform="matrix(0.707107 0.707107 -0.474641 0.88018 737.511 594.976)" fill="black"/>
<rect width="0.514073" height="640.946" transform="matrix(0.707107 0.707107 -0.474641 0.88018 749.973 607.439)" fill="black"/>
<rect width="0.514073" height="640.946" transform="matrix(0.707107 0.707107 -0.474641 0.88018 739.588 597.053)" fill="black"/>
<rect width="0.514073" height="640.946" transform="matrix(0.707107 0.707107 -0.474641 0.88018 752.051 609.517)" fill="black"/>
<rect width="0.514073" height="640.946" transform="matrix(0.707107 0.707107 -0.474641 0.88018 741.664 599.131)" fill="black"/>
<rect width="0.514073" height="640.946" transform="matrix(0.707107 0.707107 -0.474641 0.88018 754.129 611.594)" fill="black"/>
</g>
</g>
<defs>
<filter id="filter0_d_519_8562" x="0" y="476" width="418" height="250" filterUnits="userSpaceOnUse" color-interpolation-filters="sRGB">
<feFlood flood-opacity="0" result="BackgroundImageFix"/>
<feColorMatrix in="SourceAlpha" type="matrix" values="0 0 0 0 0 0 0 0 0 0 0 0 0 0 0 0 0 0 127 0" result="hardAlpha"/>
<feOffset dx="-20" dy="30"/>
<feGaussianBlur stdDeviation="25"/>
<feComposite in2="hardAlpha" operator="out"/>
<feColorMatrix type="matrix" values="0 0 0 0 0 0 0 0 0 0.108419 0 0 0 0 0.208499 0 0 0 0.06 0"/>
<feBlend mode="normal" in2="BackgroundImageFix" result="effect1_dropShadow_519_8562"/>
<feBlend mode="normal" in="SourceGraphic" in2="effect1_dropShadow_519_8562" result="shape"/>
</filter>
<filter id="filter1_d_519_8562" x="435" y="195" width="325" height="182" filterUnits="userSpaceOnUse" color-interpolation-filters="sRGB">
<feFlood flood-opacity="0" result="BackgroundImageFix"/>
<feColorMatrix in="SourceAlpha" type="matrix" values="0 0 0 0 0 0 0 0 0 0 0 0 0 0 0 0 0 0 127 0" result="hardAlpha"/>
<feOffset dx="10" dy="30"/>
<feGaussianBlur stdDeviation="25"/>
<feComposite in2="hardAlpha" operator="out"/>
<feColorMatrix type="matrix" values="0 0 0 0 0 0 0 0 0 0 0 0 0 0 0 0 0 0 0.06 0"/>
<feBlend mode="normal" in2="BackgroundImageFix" result="effect1_dropShadow_519_8562"/>
<feBlend mode="normal" in="SourceGraphic" in2="effect1_dropShadow_519_8562" result="shape"/>
</filter>
<filter id="filter2_d_519_8562" x="240" y="31" width="431" height="190" filterUnits="userSpaceOnUse" color-interpolation-filters="sRGB">
<feFlood flood-opacity="0" result="BackgroundImageFix"/>
<feColorMatrix in="SourceAlpha" type="matrix" values="0 0 0 0 0 0 0 0 0 0 0 0 0 0 0 0 0 0 127 0" result="hardAlpha"/>
<feOffset dy="30"/>
<feGaussianBlur stdDeviation="30"/>
<feComposite in2="hardAlpha" operator="out"/>
<feColorMatrix type="matrix" values="0 0 0 0 0 0 0 0 0 0.126552 0 0 0 0 0.154332 0 0 0 0.1 0"/>
<feBlend mode="normal" in2="BackgroundImageFix" result="effect1_dropShadow_519_8562"/>
<feBlend mode="normal" in="SourceGraphic" in2="effect1_dropShadow_519_8562" result="shape"/>
</filter>
<filter id="filter3_d_519_8562" x="594" y="41" width="148.296" height="150" filterUnits="userSpaceOnUse" color-interpolation-filters="sRGB">
<feFlood flood-opacity="0" result="BackgroundImageFix"/>
<feColorMatrix in="SourceAlpha" type="matrix" values="0 0 0 0 0 0 0 0 0 0 0 0 0 0 0 0 0 0 127 0" result="hardAlpha"/>
<feOffset dy="20"/>
<feGaussianBlur stdDeviation="20"/>
<feComposite in2="hardAlpha" operator="out"/>
<feColorMatrix type="matrix" values="0 0 0 0 0 0 0 0 0 0.274959 0 0 0 0 0.126682 0 0 0 0.31 0"/>
<feBlend mode="normal" in2="BackgroundImageFix" result="effect1_dropShadow_519_8562"/>
<feBlend mode="normal" in="SourceGraphic" in2="effect1_dropShadow_519_8562" result="shape"/>
</filter>
</defs>
</svg>
