<svg width="35" height="40" viewBox="0 0 35 40" fill="none" xmlns="http://www.w3.org/2000/svg">
<path fill-rule="evenodd" clip-rule="evenodd" d="M21.9482 0C22.0341 0 22.1183 0.00723226 22.2003 0.0211207L22.474 0.0228C22.882 0.0228 23.272 0.1888 23.556 0.4828L33.686 11.0368C33.954 11.3148 34.1042 11.6888 34.1042 12.0748V30.4068C34.14 35.4248 30.232 39.5248 25.206 39.7288L9.168 39.7308H8.95C4.05011 39.6201 0.120325 35.6572 0.000603662 30.8052L0 8.9808C0.116 4.0188 4.214 0.0228 9.14 0.0228L21.6961 0.0211207C21.7781 0.00723226 21.8623 0 21.9482 0ZM20.448 3.022L9.144 3.0228C5.83 3.0228 3.078 5.7068 3 9.0168V30.4068C2.926 33.8328 5.626 36.6548 9.018 36.7308H25.146C28.484 36.5928 31.128 33.8188 31.1042 30.4188L31.104 13.966L27.0842 13.968C23.4242 13.958 20.4482 10.974 20.4482 7.318L20.448 3.022ZM21.5746 25.2162C22.4026 25.2162 23.0746 25.8882 23.0746 26.7162C23.0746 27.5442 22.4026 28.2162 21.5746 28.2162H10.7746C9.9466 28.2162 9.2746 27.5442 9.2746 26.7162C9.2746 25.8882 9.9466 25.2162 10.7746 25.2162H21.5746ZM17.4848 17.7122C18.3128 17.7122 18.9848 18.3842 18.9848 19.2122C18.9848 20.0402 18.3128 20.7122 17.4848 20.7122H10.7728C9.9448 20.7122 9.2728 20.0402 9.2728 19.2122C9.2728 18.3842 9.9448 17.7122 10.7728 17.7122H17.4848ZM23.448 4.704L23.4482 7.318C23.4482 9.326 25.0822 10.962 27.0882 10.968L29.46 10.966L23.448 4.704Z" fill="#244034"/>
</svg>
