<svg width="36" height="36" viewBox="0 0 36 36" fill="none" xmlns="http://www.w3.org/2000/svg">
<path fill-rule="evenodd" clip-rule="evenodd" d="M25.8012 0C31.9014 0 36 4.2804 36 10.6488V25.3512C36 31.7196 31.9014 36 25.7994 36H10.197C4.0968 36 0 31.7196 0 25.3512V10.6488C0 4.2804 4.0968 0 10.197 0H25.8012ZM25.8012 2.7H10.197C5.643 2.7 2.7 5.8194 2.7 10.6488V25.3512C2.7 30.1806 5.643 33.3 10.197 33.3H25.7994C30.3552 33.3 33.3 30.1806 33.3 25.3512V10.6488C33.3 5.8194 30.3552 2.7 25.8012 2.7ZM25.3611 12.7746C25.8885 13.302 25.8885 14.1552 25.3611 14.6826L16.8183 23.2254C16.5555 23.49 16.2099 23.6214 15.8643 23.6214C15.5205 23.6214 15.1731 23.49 14.9103 23.2254L10.6371 18.954C10.1097 18.4266 10.1097 17.5734 10.6371 17.046C11.1645 16.5186 12.0177 16.5186 12.5451 17.046L15.8643 20.3616L23.4531 12.7746C23.9805 12.2472 24.8337 12.2472 25.3611 12.7746Z" fill="#244034"/>
</svg>
